<svg width="36" height="36" viewBox="0 0 36 36" fill="none" xmlns="http://www.w3.org/2000/svg">
<path d="M33.66 18.3602C33.66 17.3068 33.5666 16.3068 33.4066 15.3335H18.34V21.3468H26.9666C26.58 23.3202 25.4466 24.9868 23.7666 26.1202V30.1202H28.9133C31.9266 27.3335 33.66 23.2268 33.66 18.3602Z" fill="#4285F4"/>
<path d="M18.3399 33.9999C22.6599 33.9999 26.2733 32.5599 28.9133 30.1199L23.7666 26.1199C22.3266 27.0799 20.4999 27.6666 18.3399 27.6666C14.1666 27.6666 10.6333 24.8532 9.36661 21.0532H4.05994V25.1732C6.6866 30.3999 12.0866 33.9999 18.3399 33.9999Z" fill="#34A853"/>
<path d="M9.36663 21.0533C9.0333 20.0933 8.85996 19.0667 8.85996 18C8.85996 16.9333 9.04663 15.9067 9.36663 14.9467V10.8267H4.05996C2.96663 12.9867 2.33997 15.4133 2.33997 18C2.33997 20.5867 2.96663 23.0133 4.05996 25.1733L9.36663 21.0533Z" fill="#FBBC05"/>
<path d="M18.3399 8.33333C20.6999 8.33333 22.8066 9.14667 24.4733 10.7333L29.0333 6.17334C26.2733 3.58667 22.6599 2 18.3399 2C12.0866 2 6.6866 5.6 4.05994 10.8267L9.36661 14.9467C10.6333 11.1467 14.1666 8.33333 18.3399 8.33333Z" fill="#EA4335"/>
</svg>
