<svg width="24" height="24" viewBox="0 0 24 24" fill="none" xmlns="http://www.w3.org/2000/svg">
<path d="M18 6.5C17.8674 6.5 17.7402 6.44732 17.6464 6.35355C17.5527 6.25979 17.5 6.13261 17.5 6C17.5 5.86739 17.5527 5.74021 17.6464 5.64645C17.7402 5.55268 17.8674 5.5 18 5.5M18 6.5C18.1326 6.5 18.2598 6.44732 18.3536 6.35355C18.4473 6.25979 18.5 6.13261 18.5 6C18.5 5.86739 18.4473 5.74021 18.3536 5.64645C18.2598 5.55268 18.1326 5.5 18 5.5M7 12C7 13.3261 7.52678 14.5979 8.46447 15.5355C9.40215 16.4732 10.6739 17 12 17C13.3261 17 14.5979 16.4732 15.5355 15.5355C16.4732 14.5979 17 13.3261 17 12C17 10.6739 16.4732 9.40215 15.5355 8.46447C14.5979 7.52678 13.3261 7 12 7C10.6739 7 9.40215 7.52678 8.46447 8.46447C7.52678 9.40215 7 10.6739 7 12Z" stroke="black" stroke-width="2" stroke-linejoin="round"/>
<path d="M16.5 1.5H7.5C5.9087 1.5 4.38258 2.13214 3.25736 3.25736C2.13214 4.38258 1.5 5.9087 1.5 7.5V16.5C1.5 18.0913 2.13214 19.6174 3.25736 20.7426C4.38258 21.8679 5.9087 22.5 7.5 22.5H16.5C18.0913 22.5 19.6174 21.8679 20.7426 20.7426C21.8679 19.6174 22.5 18.0913 22.5 16.5V7.5C22.5 5.9087 21.8679 4.38258 20.7426 3.25736C19.6174 2.13214 18.0913 1.5 16.5 1.5Z" stroke="black" stroke-width="2"/>
</svg>
