<svg width="21" height="20" viewBox="0 0 25 24" fill="none" xmlns="http://www.w3.org/2000/svg">
    <path d="M20.7003 6H3.7002" stroke="black" stroke-width="1.5" stroke-linecap="round"/>
    <path d="M9.7002 11L10.2002 16" stroke="black" stroke-width="1.5" stroke-linecap="round"/>
    <path d="M14.7002 11L14.2002 16" stroke="black" stroke-width="1.5" stroke-linecap="round"/>
    <path
        d="M6.7002 6C6.75607 6 6.78401 6 6.80934 5.99936C7.63279 5.97849 8.35922 5.45491 8.63941 4.68032C8.64803 4.65649 8.65687 4.62999 8.67454 4.57697L8.77162 4.28571C8.8545 4.03708 8.89594 3.91276 8.95091 3.8072C9.17021 3.38607 9.57594 3.09364 10.0448 3.01877C10.1623 3 10.2934 3 10.5555 3H13.8449C14.107 3 14.2381 3 14.3556 3.01877C14.8245 3.09364 15.2302 3.38607 15.4495 3.8072C15.5044 3.91276 15.5459 4.03708 15.6288 4.28571L15.7259 4.57697C15.7435 4.62992 15.7524 4.65651 15.761 4.68032C16.0412 5.45491 16.7676 5.97849 17.591 5.99936C17.6164 6 17.6443 6 17.7002 6"
        stroke="black" stroke-width="1.5"/>
    <path
        d="M18.5739 15.3991C18.3969 18.054 18.3084 19.3815 17.4434 20.1907C16.5784 21 15.248 21 12.5872 21H11.8138C9.15304 21 7.82264 21 6.95763 20.1907C6.09262 19.3815 6.00412 18.054 5.82713 15.3991L5.36719 8.5M19.0339 8.5L18.8339 11.5"
        stroke="black" stroke-width="1.5" stroke-linecap="round"/>
</svg>
